HIERARCHY
ROOT Hips
{
  OFFSET 57.1483 83.6867 5.22795
  CHANNELS 6 Xposition Yposition Zposition Zrotation Xrotation Yrotation
  JOINT spine
  {
    OFFSET 0 5.95438 0.342407
    CHANNELS 3 Zrotation Xrotation Yrotation
    JOINT spine1
    {
      OFFSET 0 8.85602 0
      CHANNELS 3 Zrotation Xrotation Yrotation
      JOINT spine2
      {
        OFFSET 0 8.48567 0
        CHANNELS 3 Zrotation Xrotation Yrotation
        JOINT Neck
        {
          OFFSET 0 21.7863 1.0387
          CHANNELS 3 Zrotation Xrotation Yrotation
          JOINT Head
          {
            OFFSET 0 6.5822 0
            CHANNELS 3 Zrotation Xrotation Yrotation
            End Site
            {
              OFFSET 0 15.9326 -5.25436
            }
          }
        }
        JOINT RightShoulder
        {
          OFFSET -3.57307 9.16386 -0.497525
          CHANNELS 3 Zrotation Xrotation Yrotation
          JOINT RightArm
          {
            OFFSET 0 12.0192 0
            CHANNELS 3 Zrotation Xrotation Yrotation
            JOINT RightArmRoll
            {
              OFFSET 0 6.06754 0
              CHANNELS 3 Zrotation Xrotation Yrotation
              JOINT RightForeArm
              {
                OFFSET 0 17.6726 0
                CHANNELS 3 Zrotation Xrotation Yrotation
                JOINT RightForeArmRoll
                {
                  OFFSET 0 6.80872 0
                  CHANNELS 3 Zrotation Xrotation Yrotation
                  JOINT RightHand
                  {
                    OFFSET 0 13.6636 0
                    CHANNELS 3 Zrotation Xrotation Yrotation
                    End Site
                    {
                      OFFSET 0 0 0
                    }
                  }
                }
              }
            }
          }
        }
        JOINT LeftShoulder
        {
          OFFSET 3.57307 9.16386 -0.497525
          CHANNELS 3 Zrotation Xrotation Yrotation
          JOINT LeftArm
          {
            OFFSET 0 12.0192 0
            CHANNELS 3 Zrotation Xrotation Yrotation
            JOINT LeftArmRoll
            {
              OFFSET 0 6.06755 0
              CHANNELS 3 Zrotation Xrotation Yrotation
              JOINT LeftForeArm
              {
                OFFSET 0 17.6726 0
                CHANNELS 3 Zrotation Xrotation Yrotation
                JOINT LeftForeArmRoll
                {
                  OFFSET 0 6.80872 0
                  CHANNELS 3 Zrotation Xrotation Yrotation
                  JOINT LeftHand
                  {
                    OFFSET 0 13.6636 0
                    CHANNELS 3 Zrotation Xrotation Yrotation
                    End Site
                    {
                      OFFSET 0 0 0
                    }
                  }
                }
              }
            }
          }
        }
      }
    }
  }
  JOINT RightUpLeg
  {
    OFFSET -5.27774 -0.967797 -0.811858
    CHANNELS 3 Zrotation Xrotation Yrotation
    JOINT RightUpLegRoll
    {
      OFFSET 0 16.0214 0
      CHANNELS 3 Zrotation Xrotation Yrotation
      JOINT RightLeg
      {
        OFFSET 0 -19.8401 0
        CHANNELS 3 Zrotation Xrotation Yrotation
        JOINT RightLegRoll
        {
          OFFSET 0 19.905 0
          CHANNELS 3 Zrotation Xrotation Yrotation
          JOINT RightFoot
          {
            OFFSET 0 16.5675 0
            CHANNELS 3 Zrotation Xrotation Yrotation
            JOINT RightToeBase
            {
              OFFSET 0 13.8496 0
              CHANNELS 3 Zrotation Xrotation Yrotation
              End Site
              {
                OFFSET 0.00587034 6.70727 -0.773117
              }
            }
          }
        }
      }
    }
  }
  JOINT LeftUpLeg
  {
    OFFSET 5.27774 -0.967797 -0.811858
    CHANNELS 3 Zrotation Xrotation Yrotation
    JOINT LeftUpLegRoll
    {
      OFFSET 0 16.0215 0
      CHANNELS 3 Zrotation Xrotation Yrotation
      JOINT LeftLeg
      {
        OFFSET 0 19.84 0
        CHANNELS 3 Zrotation Xrotation Yrotation
        JOINT LeftLegRoll
        {
          OFFSET 0 20.089 0
          CHANNELS 3 Zrotation Xrotation Yrotation
          JOINT LeftFoot
          {
            OFFSET 0 16.3835 0
            CHANNELS 3 Zrotation Xrotation Yrotation
            JOINT LeftToeBase
            {
              OFFSET 0 13.8496 0
              CHANNELS 3 Zrotation Xrotation Yrotation
              End Site
              {
                OFFSET -0.0263083 6.70728 -0.773117
              }
            }
          }
        }
      }
    }
  }
}
MOTION
Frames: 6
Frame Time: 0.00208333
53.5399 84.0485 3.78331 1.90886 -5.79304 0.724369 -0.502764 0.204755 0.083898 -1.03042 4.41107 0.248779 -1.03501 6.05598 0.266432 -3.06032 2.58675 -0.431339 9.33058 10.6568 -1.30445 66.0298 -3.7744 -2.83217 118.635 19.6267 -19.6737 3.61485e-006 1.56735e-006 -1.13206e-006 -3.64051 -0.0265916 -1.99255 -1.89391e-006 -3.04794e-007 -3.01161 8.03009 -4.95138 0.697651 -57.567 -7.46005 4.55812 -129.01 19.1113 28.7978 -1.49102e-007 2.71916e-006 9.77861e-007 3.63949 -0.0268832 1.99261 1.45137e-005 -4.38367e-006 3.01161 -8.0301 -4.95139 -0.697639 175.623 2.03904 5.25132 -180 7.01546e-015 178.917 176.84 14.1201 179.917 -5.46975e-007 2.83684e-007 0.234672 -20.5164 70.0899 21.4716 8.12417 25.2333 -3.48249 177.508 -1.59375 0.875606 4.54188e-006 -4.6773e-006 -1.09556 -3.13761 -10.2206 0.0451614 2.69672e-006 1.70724e-006 -0.124174 18.3974 67.7189 -19.2938 -8.12319 25.2334 3.48207 
53.5264 84.0549 3.79968 1.89562 -5.7403 0.724337 -0.499798 0.206232 0.0838975 -1.02296 4.41403 0.248302 -1.02754 6.05895 0.265727 -3.0869 2.49375 -0.445657 9.33541 10.6562 -1.32313 65.9612 -3.76099 -2.81965 118.711 19.6373 -19.7521 3.61485e-006 1.56735e-006 -1.13206e-006 -3.64051 -0.0265916 -1.99255 -1.89391e-006 -3.04794e-007 -3.01161 8.03009 -4.95138 0.697651 -57.5908 -7.46836 4.56433 -128.99 19.1274 28.7836 -1.49102e-007 2.71916e-006 9.77861e-007 3.63949 -0.0268832 1.99261 1.45137e-005 -4.38367e-006 3.01161 -8.0301 -4.95139 -0.697639 175.651 2.10526 5.22284 -180 7.01546e-015 178.917 176.855 14.1324 179.915 -5.46975e-007 2.83684e-007 0.23496 -20.5138 70.0874 21.4689 8.12417 25.2333 -3.48249 177.521 -1.52057 0.876244 4.54188e-006 -4.6773e-006 -1.09496 -3.13592 -10.2429 0.0454643 2.69672e-006 1.70724e-006 -0.124116 18.3967 67.718 -19.2931 -8.12319 25.2334 3.48207 
53.5189 84.0554 3.78881 1.8827 -5.6886 0.72397 -0.496834 0.207667 0.0838958 -1.01544 4.41691 0.247843 -1.02 6.06183 0.265031 -3.11413 2.40121 -0.459664 9.34004 10.6569 -1.34177 65.8909 -3.74731 -2.80686 118.788 19.6472 -19.8316 3.61485e-006 1.56735e-006 -1.13206e-006 -3.64051 -0.0265916 -1.99255 -1.89391e-006 -3.04794e-007 -3.01161 8.03009 -4.95138 0.697651 -57.6161 -7.47743 4.57109 -128.97 19.1433 28.7683 -1.49102e-007 2.71916e-006 9.77861e-007 3.63949 -0.0268832 1.99261 1.45137e-005 -4.38367e-006 3.01161 -8.0301 -4.95139 -0.697639 175.678 2.17055 5.19529 -180 7.01546e-015 178.917 176.869 14.145 179.913 -5.46975e-007 2.83684e-007 0.23525 -20.5115 70.0852 21.4664 8.12417 25.2333 -3.48249 177.534 -1.44895 0.876775 4.54188e-006 -4.6773e-006 -1.09439 -3.13447 -10.2647 0.0457336 2.69672e-006 1.70724e-006 -0.12403 18.3957 67.7167 -19.2921 -8.12319 25.2334 3.48207 
53.5189 84.0547 3.77037 1.87002 -5.63762 0.723369 -0.49387 0.209072 0.0838933 -1.00789 4.41973 0.247398 -1.01243 6.06465 0.264343 -3.14183 2.309 -0.473452 9.34454 10.6584 -1.36038 65.8194 -3.73344 -2.79389 118.866 19.6566 -19.9118 3.61485e-006 1.56735e-006 -1.13206e-006 -3.64051 -0.0265916 -1.99255 -1.89391e-006 -3.04794e-007 -3.01161 8.03009 -4.95138 0.697651 -57.6423 -7.48703 4.57822 -128.949 19.1592 28.7523 -1.49102e-007 2.71916e-006 9.77861e-007 3.63949 -0.0268832 1.99261 1.45137e-005 -4.38367e-006 3.01161 -8.0301 -4.95139 -0.697639 175.705 2.23518 5.16839 -180 7.01546e-015 178.917 176.883 14.1578 179.912 -5.46975e-007 2.83684e-007 0.23554 -20.5095 70.0831 21.4641 8.12417 25.2333 -3.48249 177.547 -1.37843 0.87723 4.54188e-006 -4.6773e-006 -1.09384 -3.13318 -10.2861 0.0459794 2.69672e-006 1.70724e-006 -0.123925 18.3945 67.7152 -19.2909 -8.12319 25.2334 3.48207 
53.5202 84.0521 3.77289 1.85748 -5.58705 0.722634 -0.490907 0.210461 0.0838902 -1.00032 4.42252 0.24696 -1.00484 6.06744 0.263658 -3.16981 2.21698 -0.487115 9.34896 10.6604 -1.37898 65.7472 -3.71947 -2.7808 118.945 19.6656 -19.9924 3.61485e-006 1.56735e-006 -1.13206e-006 -3.64051 -0.0265916 -1.99255 -1.89391e-006 -3.04794e-007 -3.01161 8.03009 -4.95138 0.697651 -57.6692 -7.49693 4.58557 -128.927 19.175 28.7358 -1.49102e-007 2.71916e-006 9.77861e-007 3.63949 -0.0268832 1.99261 1.45137e-005 -4.38367e-006 3.01161 -8.0301 -4.95139 -0.697639 175.732 2.29945 5.14187 -180 7.01546e-015 178.917 176.897 14.1708 179.91 -5.46975e-007 2.83684e-007 0.23583 -20.5075 70.0812 21.4619 8.12417 25.2333 -3.48249 177.56 -1.30854 0.877644 4.54188e-006 -4.6773e-006 -1.0933 -3.13198 -10.3073 0.0462118 2.69672e-006 1.70724e-006 -0.123808 18.3932 67.7135 -19.2895 -8.12319 25.2334 3.48207 
53.514 84.0485 3.75721 1.84497 -5.53659 0.721866 -0.487944 0.211844 0.0838871 -0.992741 4.4253 0.246524 -0.997249 6.07022 0.262975 -3.1979 2.12501 -0.500746 9.35337 10.6625 -1.39757 65.6749 -3.70547 -2.76769 119.024 19.6745 -20.0731 3.61485e-006 1.56735e-006 -1.13206e-006 -3.64051 -0.0265916 -1.99255 -1.89391e-006 -3.04794e-007 -3.01161 8.03009 -4.95138 0.697651 -57.6962 -7.50691 4.59298 -128.905 19.1909 28.7192 -1.49102e-007 2.71916e-006 9.77861e-007 3.63949 -0.0268832 1.99261 1.45137e-005 -4.38367e-006 3.01161 -8.0301 -4.95139 -0.697639 175.758 2.36362 5.11544 -180 7.01546e-015 178.917 176.91 14.1837 179.909 -5.46975e-007 2.83684e-007 0.236121 -20.5055 70.0794 21.4598 8.12417 25.2333 -3.48249 177.572 -1.2388 0.878048 4.54188e-006 -4.6773e-006 -1.09276 -3.13081 -10.3284 0.0464408 2.69672e-006 1.70724e-006 -0.123688 18.3919 67.7118 -19.2881 -8.12319 25.2334 3.48207 
